<svg xmlns="http://www.w3.org/2000/svg" xmlns:xlink="http://www.w3.org/1999/xlink" width="877pt" height="627pt" viewBox="0.00 0.00 876.92 627.44">
<g id="graph0" class="graph" transform="scale(1 1) rotate(0) translate(4 623.44)">
<title>MDP</title>
<polygon fill="white" stroke="none" points="-4,4 -4,-623.44 872.92,-623.44 872.92,4 -4,4"/>
<g id="clust1" class="cluster">
<title>cluster_State</title>
<polygon fill="lightgrey" stroke="lightgrey" points="8,-504.54 8,-583.14 194,-583.14 194,-504.54 8,-504.54"/>
<text text-anchor="middle" x="101" y="-566.54" font-family="Times,serif" font-size="14.00">State Space (S)</text>
</g>
<g id="clust2" class="cluster">
<title>cluster_Action</title>
<polygon fill="lightgrey" stroke="lightgrey" points="202,-476.24 202,-611.44 456,-611.44 456,-476.24 202,-476.24"/>
<text text-anchor="middle" x="329" y="-594.84" font-family="Times,serif" font-size="14.00">Action Space (A)</text>
</g>
<g id="clust3" class="cluster">
<title>cluster_Oracle</title>
<polygon fill="lightblue" stroke="lightblue" points="488,-172.6 488,-250.2 570,-250.2 570,-172.6 488,-172.6"/>
<text text-anchor="middle" x="529" y="-233.6" font-family="Times,serif" font-size="14.00">Risk Oracle</text>
</g>
<g id="clust4" class="cluster">
<title>cluster_Reward</title>
<polygon fill="lightgoldenrodyellow" stroke="lightgoldenrodyellow" points="489,-65 489,-142.6 689,-142.6 689,-65 489,-65"/>
<text text-anchor="middle" x="589" y="-126" font-family="Times,serif" font-size="14.00">Reward Function (R)</text>
</g>
<!-- S -->
<g id="node1" class="node">
<title>S</title>
<polygon fill="white" stroke="black" points="16,-513.44 16,-549.44 70,-549.44 70,-513.44 16,-513.44"/>
<text text-anchor="middle" x="42.5" y="-527.84" font-family="Arial" font-size="12.00">S</text>
</g>
<!-- S_example -->
<g id="node2" class="node">
<title>S_example</title>
<polygon fill="white" stroke="black" points="88.31,-513.04 88.31,-549.84 185.69,-549.84 185.69,-513.04 88.31,-513.04"/>
<text text-anchor="middle" x="137" y="-535.04" font-family="Arial" font-size="12.00">Example State:</text>
<text text-anchor="middle" x="137" y="-520.64" font-family="Arial" font-size="12.00">(1, 1, 0, 1)</text>
</g>
<!-- A -->
<g id="node3" class="node">
<title>A</title>
<polygon fill="white" stroke="none" points="448.03,-578.64 209.97,-578.64 209.97,-484.24 448.03,-484.24 448.03,-578.64"/>
<text text-anchor="middle" x="329" y="-563.84" font-family="Arial" font-size="12.00">Actions:</text>
<text text-anchor="middle" x="329" y="-549.44" font-family="Arial" font-size="12.00">NO_ACTION</text>
<text text-anchor="middle" x="329" y="-535.04" font-family="Arial" font-size="12.00">REDUCE_SMOKING</text>
<text text-anchor="middle" x="329" y="-520.64" font-family="Arial" font-size="12.00">REDUCE_MENTAL_STRESS</text>
<text text-anchor="middle" x="329" y="-506.24" font-family="Arial" font-size="12.00">REDUCE_ALCOHOL_CONSUMPTION</text>
<text text-anchor="middle" x="329" y="-491.84" font-family="Arial" font-size="12.00">REDUCE_EXPOSURE_TO_POLLUTION</text>
</g>
<!-- Oracle -->
<g id="node4" class="node">
<title>Oracle</title>
<polygon fill="none" stroke="black" points="561.01,-217.4 496.99,-217.4 496.99,-213.4 492.99,-213.4 492.99,-209.4 496.99,-209.4 496.99,-188.6 492.99,-188.6 492.99,-184.6 496.99,-184.6 496.99,-180.6 561.01,-180.6 561.01,-217.4"/>
<polyline fill="none" stroke="black" points="496.99,-213.4 500.99,-213.4 500.99,-209.4 496.99,-209.4"/>
<polyline fill="none" stroke="black" points="496.99,-188.6 500.99,-188.6 500.99,-184.6 496.99,-184.6"/>
<text text-anchor="middle" x="529" y="-202.6" font-family="Arial" font-size="12.00">XGBoost</text>
<text text-anchor="middle" x="529" y="-188.2" font-family="Arial" font-size="12.00">Model</text>
</g>
<!-- R_formula -->
<g id="node5" class="node">
<title>R_formula</title>
<polygon fill="white" stroke="none" points="680.81,-109.8 497.19,-109.8 497.19,-73 680.81,-73 680.81,-109.8"/>
<text text-anchor="middle" x="589" y="-95" font-family="Arial" font-size="12.00">R(s, a, s') =</text>
<text text-anchor="middle" x="589" y="-80.6" font-family="Arial" font-size="12.00"> (Risk(s) - Risk(s')) - ActionCost</text>
</g>
<!-- Oracle&#45;&gt;R_formula -->
<g id="edge5" class="edge">
<title>Oracle-&gt;R_formula</title>
<path fill="none" stroke="blue" stroke-dasharray="5,2" d="M514.8,-180.1C509.43,-171.08 505.64,-160.07 510.42,-150.6 517.54,-136.45 529.92,-124.88 542.77,-115.89"/>
<polygon fill="blue" stroke="blue" points="544.4,-119.01 550.88,-110.62 540.59,-113.14 544.4,-119.01"/>
<text text-anchor="middle" x="542.71" y="-153.6" font-family="Times,serif" font-size="10.00">Risk(s), Risk(s')</text>
</g>
<!-- Reward_r -->
<g id="node9" class="node">
<title>Reward_r</title>
<polygon fill="gold" stroke="black" points="625.94,-12.44 677,0 728.06,-12.44 728.02,-32.56 625.98,-32.56 625.94,-12.44"/>
<text text-anchor="middle" x="677" y="-14.4" font-family="Arial" font-size="12.00">Reward r</text>
</g>
<!-- R_formula&#45;&gt;Reward_r -->
<g id="edge8" class="edge">
<title>R_formula-&gt;Reward_r</title>
<path fill="none" stroke="red" stroke-dasharray="5,2" d="M610.3,-73.12C622.5,-63.22 637.9,-50.72 650.83,-40.23"/>
<polygon fill="red" stroke="red" points="652.99,-42.99 658.55,-33.97 648.58,-37.55 652.99,-42.99"/>
</g>
<!-- State_t -->
<g id="node6" class="node">
<title>State_t</title>
<ellipse fill="lightcyan" stroke="black" cx="558" cy="-531.44" rx="91.48" ry="26.02"/>
<text text-anchor="middle" x="558" y="-535.04" font-family="Arial" font-size="12.00">State s</text>
<text text-anchor="middle" x="558" y="-520.64" font-family="Arial" font-size="12.00">(Modifiable Features)</text>
</g>
<!-- State_t&#45;&gt;Oracle -->
<g id="edge3" class="edge">
<title>State_t-&gt;Oracle</title>
<path fill="none" stroke="blue" stroke-dasharray="5,2" d="M555.15,-505.27C553.05,-486.31 550.18,-459.66 548,-436.24 541.05,-361.72 534.38,-273.83 531.11,-229.19"/>
<polygon fill="blue" stroke="blue" points="534.6,-229.02 530.39,-219.3 527.62,-229.53 534.6,-229.02"/>
<text text-anchor="middle" x="565.34" y="-367.24" font-family="Times,serif" font-size="10.00">Features(s)</text>
</g>
<!-- Action_a -->
<g id="node7" class="node">
<title>Action_a</title>
<polygon fill="lightcoral" stroke="black" points="611,-436.24 557.38,-418.24 611,-400.24 664.62,-418.24 611,-436.24"/>
<text text-anchor="middle" x="611" y="-414.64" font-family="Arial" font-size="12.00">Action a</text>
</g>
<!-- State_t&#45;&gt;Action_a -->
<g id="edge1" class="edge">
<title>State_t-&gt;Action_a</title>
<path fill="none" stroke="black" d="M570.03,-505.21C578.68,-487.06 590.29,-462.69 598.95,-444.53"/>
<polygon fill="black" stroke="black" points="602.11,-446.03 603.25,-435.5 595.79,-443.02 602.11,-446.03"/>
<text text-anchor="middle" x="621.49" y="-457.24" font-family="Times,serif" font-size="10.00">Agent Selects</text>
</g>
<!-- Action_a&#45;&gt;R_formula -->
<g id="edge7" class="edge">
<title>Action_a-&gt;R_formula</title>
<path fill="none" stroke="red" stroke-dasharray="5,2" d="M607.38,-401.03C601.55,-374.06 590.36,-318.18 586.36,-270.2 581.99,-217.64 584.63,-156.04 586.87,-120.88"/>
<polygon fill="red" stroke="red" points="590.35,-121.33 587.53,-111.11 583.36,-120.85 590.35,-121.33"/>
<text text-anchor="middle" x="632.18" y="-261.2" font-family="Times,serif" font-size="10.00">ActionCost if effective</text>
</g>
<!-- State_t1 -->
<g id="node8" class="node">
<title>State_t1</title>
<ellipse fill="lightcyan" stroke="black" cx="743" cy="-314.22" rx="125.92" ry="26.02"/>
<text text-anchor="middle" x="743" y="-317.82" font-family="Arial" font-size="12.00">Next State s'</text>
<text text-anchor="middle" x="743" y="-303.42" font-family="Arial" font-size="12.00">(Updated Modifiable Features)</text>
</g>
<!-- Action_a&#45;&gt;State_t1 -->
<g id="edge2" class="edge">
<title>Action_a-&gt;State_t1</title>
<path fill="none" stroke="black" d="M626.66,-405.14C645.23,-390.79 676.89,-366.31 702.5,-346.52"/>
<polygon fill="black" stroke="black" points="704.31,-349.55 710.08,-340.66 700.03,-344.01 704.31,-349.55"/>
<text text-anchor="middle" x="757.41" y="-373.24" font-family="Times,serif" font-size="10.00">Environment Transitions</text>
<text text-anchor="middle" x="757.41" y="-361.24" font-family="Times,serif" font-size="10.00">(Feature changes 1-&gt;0 if applicable)</text>
</g>
<!-- State_t1&#45;&gt;Oracle -->
<g id="edge4" class="edge">
<title>State_t1-&gt;Oracle</title>
<path fill="none" stroke="blue" stroke-dasharray="5,2" d="M719.46,-288.21C708.77,-277.9 695.51,-266.46 682,-258.2 647.4,-237.05 603.85,-221.4 572.06,-211.68"/>
<polygon fill="blue" stroke="blue" points="573.38,-208.42 562.8,-208.93 571.38,-215.13 573.38,-208.42"/>
<text text-anchor="middle" x="721.64" y="-261.2" font-family="Times,serif" font-size="10.00">Features(s')</text>
</g>
<!-- State_t1&#45;&gt;Reward_r -->
<g id="edge6" class="edge">
<title>State_t1-&gt;Reward_r</title>
<path fill="none" stroke="red" stroke-dasharray="5,2" d="M748.4,-287.98C749.71,-278.61 750.38,-267.9 749,-258.2 737.52,-177.37 703.99,-86.08 687.05,-43.41"/>
<polygon fill="red" stroke="red" points="690.38,-42.32 683.4,-34.36 683.89,-44.94 690.38,-42.32"/>
</g>
</g>
</svg>